<svg width="600" height="360" viewBox="0 0 600 360" fill="none" xmlns="http://www.w3.org/2000/svg">
  <defs>
    <linearGradient id="gradC1" x1="0" y1="0" x2="1" y2="1">
      <stop offset="0%" stop-color="#000000"/>
      <stop offset="100%" stop-color="#111111"/>
    </linearGradient>
  </defs>
  <rect width="600" height="360" rx="32" fill="url(#gradC1)"/>
  <circle cx="300" cy="140" r="98" fill="#ffffff" opacity="0.1"/>
  <path d="M200 160L260 120L320 160L350 130L360 160L400 130L420 180L300 260L180 160Z" fill="#ffffff" opacity="0.15"/>
  <rect x="260" y="90" width="80" height="180" rx="18" fill="#ffffff" opacity="0.08"/>
  <path d="M300 100C280 100 250 120 250 150C250 180 280 200 300 200C320 200 350 180 350 150C350 120 320 100 300 100Z" fill="#fff" opacity="0.4"/>
  <text x="300" y="320" text-anchor="middle" font-family="Inter, sans-serif" font-size="28" font-weight="800" fill="#ffd703">Mundial Corinthians</text>
  <text x="300" y="342" text-anchor="middle" font-family="Inter, sans-serif" font-size="16" fill="#fff" opacity="0.7">A conquista que ficou na história</text>
</svg>
