<svg width="600" height="360" viewBox="0 0 600 360" fill="none" xmlns="http://www.w3.org/2000/svg">
  <defs>
    <linearGradient id="gradient3" x1="0" y1="0" x2="1" y2="1">
      <stop offset="0%" stop-color="#ff006e"/>
      <stop offset="100%" stop-color="#fb8500"/>
    </linearGradient>
  </defs>
  <rect width="600" height="360" rx="32" fill="#0B1323"/>
  <polygon points="120,260 180,120 240,260" fill="#ffb703" opacity="0.2"/>
  <path d="M430 220C430 254.182 402.182 282 368 282C333.818 282 306 254.182 306 220C306 185.818 333.818 158 368 158C402.182 158 430 185.818 430 220Z" fill="#fff" opacity="0.15"/>
  <path d="M148 130C148 118.954 156.954 110 168 110H312C323.046 110 332 118.954 332 130V164C332 175.046 323.046 184 312 184H168C156.954 184 148 175.046 148 164V130Z" fill="url(#gradient3)"/>
  <path d="M180 140H280" stroke="#fff" stroke-width="12" stroke-linecap="round"/>
  <path d="M180 168H238" stroke="#fff" stroke-width="12" stroke-linecap="round"/>
  <path d="M390 160C410 140 460 140 480 160C500 180 500 230 480 250C460 270 410 270 390 250C370 230 370 180 390 160Z" fill="#f8f9fa"/>
  <text x="300" y="320" text-anchor="middle" font-family="Inter, sans-serif" font-size="30" font-weight="800" fill="#fff">Meme do Petão</text>
  <text x="300" y="344" text-anchor="middle" font-family="Inter, sans-serif" font-size="16" fill="#fff" opacity="0.7">O viral que a comunidade não esquece</text>
</svg>
